<?xml version="1.0" encoding="UTF-8" standalone="no"?>
<svg
   xmlns:dc="http://purl.org/dc/elements/1.1/"
   xmlns:cc="http://creativecommons.org/ns#"
   xmlns:rdf="http://www.w3.org/1999/02/22-rdf-syntax-ns#"
   xmlns:svg="http://www.w3.org/2000/svg"
   xmlns="http://www.w3.org/2000/svg"
   xmlns:sodipodi="http://sodipodi.sourceforge.net/DTD/sodipodi-0.dtd"
   xmlns:inkscape="http://www.inkscape.org/namespaces/inkscape"
   viewBox="0 0 576 512"
   version="1.1"
   id="svg4"
   sodipodi:docname="star-solid.svg"
   inkscape:version="1.0.1 (3bc2e813f5, 2020-09-07)">
  <metadata
     id="metadata10">
    <rdf:RDF>
      <cc:Work
         rdf:about="">
        <dc:format>image/svg+xml</dc:format>
        <dc:type
           rdf:resource="http://purl.org/dc/dcmitype/StillImage" />
      </cc:Work>
    </rdf:RDF>
  </metadata>
  <defs
     id="defs8" />
  <sodipodi:namedview
     pagecolor="#ffffff"
     bordercolor="#666666"
     borderopacity="1"
     objecttolerance="10"
     gridtolerance="10"
     guidetolerance="10"
     inkscape:pageopacity="0"
     inkscape:pageshadow="2"
     inkscape:window-width="1920"
     inkscape:window-height="1009"
     id="namedview6"
     showgrid="false"
     inkscape:zoom="1.4355469"
     inkscape:cx="288"
     inkscape:cy="256"
     inkscape:window-x="-8"
     inkscape:window-y="-8"
     inkscape:window-maximized="1"
     inkscape:current-layer="svg4" />
  <!--! Font Awesome Pro 6.4.0 by @fontawesome - https://fontawesome.com License - https://fontawesome.com/license (Commercial License) Copyright 2023 Fonticons, Inc. -->
  <path
     d="M316.9 18C311.6 7 300.4 0 288.1 0s-23.4 7-28.8 18L195 150.3 51.4 171.5c-12 1.8-22 10.2-25.7 21.7s-.7 24.2 7.9 32.7L137.8 329 113.2 474.7c-2 12 3 24.2 12.9 31.3s23 8 33.8 2.3l128.3-68.5 128.3 68.5c10.8 5.7 23.9 4.9 33.8-2.3s14.9-19.3 12.9-31.3L438.5 329 542.7 225.9c8.6-8.5 11.7-21.2 7.9-32.7s-13.7-19.9-25.7-21.7L381.2 150.3 316.9 18z"
     id="path2" />
  <path
     style="fill:#ffffff;stroke-width:0.696599"
     d="m 136.91098,510.54932 c -11.10464,-2.98621 -19.77234,-11.75522 -22.68942,-22.95463 -0.5873,-2.2548 -1.0661,-5.52276 -1.06399,-7.26213 0.002,-1.73937 5.643,-36.54698 12.53531,-77.35025 l 12.53148,-74.18775 -16.88905,-16.72763 C 40.115389,231.62328 30.510531,221.9229 28.596166,218.40558 c -5.331296,-9.79535 -5.150413,-21.93789 0.469658,-31.52782 2.182701,-3.72449 8.40036,-9.67424 12.062036,-11.54229 1.515936,-0.77337 4.470894,-1.88746 6.566574,-2.47576 2.09568,-0.58829 36.097675,-5.81499 75.559986,-11.61488 39.46231,-5.79989 71.93218,-10.7547 72.15528,-11.01069 0.22308,-0.25599 14.92844,-30.40176 32.67857,-66.990603 17.75013,-36.588843 33.15846,-67.829351 34.24073,-69.423351 6.92791,-10.2036268 21.33775,-15.6288825 33.1553,-12.4828612 6.15622,1.6388829 10.0805,3.9466227 14.82605,8.7187232 l 4.54709,4.572523 32.97124,67.918368 c 18.13417,37.355101 33.01533,67.958631 33.06923,68.007841 0.0539,0.0493 31.44495,4.70087 69.75787,10.33702 38.31293,5.63614 71.89873,10.66818 74.63513,11.18232 13.35886,2.50996 23.31155,12.3408 26.03095,25.7123 1.48294,7.29168 -0.38352,16.03997 -4.85597,22.76039 -1.12054,1.68375 -25.8007,26.57156 -54.84481,55.30625 -29.06672,28.75707 -52.89622,52.87124 -53.00488,53.6381 -0.10857,0.76625 5.12406,32.74013 11.62807,71.05306 6.50402,38.31292 12.16295,71.77578 12.57541,74.3619 2.52986,15.86244 -7.97532,31.73771 -23.66102,35.75621 -5.23335,1.34072 -12.54624,1.0691 -17.44853,-0.64809 -1.74432,-0.61101 -32.30759,-16.68022 -67.91837,-35.70936 -35.61077,-19.02914 -65.07968,-34.60667 -65.48647,-34.61674 -0.40678,-0.0101 -30.18637,15.69491 -66.17687,34.89995 -44.34435,23.66277 -66.77555,35.26402 -69.58906,35.99093 -5.09692,1.31687 -10.66029,1.30629 -15.62838,-0.0297 z"
     id="path12" />
</svg>
