<?xml version="1.0" encoding="UTF-8" standalone="no"?>
<svg
   xmlns:dc="http://purl.org/dc/elements/1.1/"
   xmlns:cc="http://creativecommons.org/ns#"
   xmlns:rdf="http://www.w3.org/1999/02/22-rdf-syntax-ns#"
   xmlns:svg="http://www.w3.org/2000/svg"
   xmlns="http://www.w3.org/2000/svg"
   xmlns:sodipodi="http://sodipodi.sourceforge.net/DTD/sodipodi-0.dtd"
   xmlns:inkscape="http://www.inkscape.org/namespaces/inkscape"
   viewBox="0 0 576 512"
   version="1.1"
   id="svg4"
   sodipodi:docname="star-regular.svg"
   inkscape:version="1.0.1 (3bc2e813f5, 2020-09-07)">
  <metadata
     id="metadata10">
    <rdf:RDF>
      <cc:Work
         rdf:about="">
        <dc:format>image/svg+xml</dc:format>
        <dc:type
           rdf:resource="http://purl.org/dc/dcmitype/StillImage" />
      </cc:Work>
    </rdf:RDF>
  </metadata>
  <defs
     id="defs8" />
  <sodipodi:namedview
     pagecolor="#ffffff"
     bordercolor="#666666"
     borderopacity="1"
     objecttolerance="10"
     gridtolerance="10"
     guidetolerance="10"
     inkscape:pageopacity="0"
     inkscape:pageshadow="2"
     inkscape:window-width="1920"
     inkscape:window-height="1009"
     id="namedview6"
     showgrid="false"
     inkscape:zoom="1.4355469"
     inkscape:cx="288"
     inkscape:cy="256"
     inkscape:window-x="-8"
     inkscape:window-y="-8"
     inkscape:window-maximized="1"
     inkscape:current-layer="svg4" />
  <!--! Font Awesome Pro 6.4.0 by @fontawesome - https://fontawesome.com License - https://fontawesome.com/license (Commercial License) Copyright 2023 Fonticons, Inc. -->
  <path
     d="M287.9 0c9.2 0 17.6 5.2 21.6 13.5l68.6 141.3 153.2 22.6c9 1.3 16.5 7.6 19.3 16.3s.5 18.1-5.9 24.5L433.6 328.4l26.2 155.6c1.5 9-2.2 18.1-9.6 23.5s-17.3 6-25.3 1.7l-137-73.2L151 509.1c-8.1 4.3-17.9 3.7-25.3-1.7s-11.2-14.5-9.7-23.5l26.2-155.6L31.1 218.2c-6.5-6.4-8.7-15.9-5.9-24.5s10.3-14.9 19.3-16.3l153.2-22.6L266.3 13.5C270.4 5.2 278.7 0 287.9 0zm0 79L235.4 187.2c-3.5 7.1-10.2 12.1-18.1 13.3L99 217.9 184.9 303c5.5 5.5 8.1 13.3 6.8 21L171.4 443.7l105.2-56.2c7.1-3.8 15.6-3.8 22.6 0l105.2 56.2L384.2 324.1c-1.3-7.7 1.2-15.5 6.8-21l85.9-85.1L358.6 200.5c-7.8-1.2-14.6-6.1-18.1-13.3L287.9 79z"
     id="path2" />
  <path
     style="fill:#ffffff;stroke-width:0.696599"
     d="m 133.55436,510.64111 c -9.37003,-2.92836 -16.29882,-11.05715 -17.35101,-20.35605 -0.28243,-2.4959 3.0719,-23.82883 13.01384,-82.76594 L 142.61153,328.1158 85.098474,270.98579 C 29.941862,216.19653 27.52602,213.6906 26.135569,209.82421 c -2.090646,-5.81341 -1.973563,-12.92579 0.29293,-17.7944 0.951046,-2.04292 2.378352,-4.53969 3.171791,-5.54839 2.335966,-2.9697 7.922412,-6.81466 11.258154,-7.74861 1.704157,-0.47714 37.648294,-5.96669 79.875856,-12.19901 42.22757,-6.23232 77.03513,-11.61364 77.35013,-11.95849 0.31501,-0.34486 15.83619,-32.13068 34.49153,-70.635174 18.65533,-38.50449 34.91747,-71.514438 36.13808,-73.35544 2.7179,-4.0993179 8.88888,-8.3824678 13.76107,-9.5512886 7.63428,-1.8314364 16.49984,0.7546314 22.02287,6.4240307 3.37242,3.4617949 2.85871,2.4431554 43.79582,86.8436759 20.81647,42.917566 29.58797,60.329846 30.59447,60.733046 0.77608,0.31091 35.89268,5.62229 78.0369,11.80306 85.33934,12.51568 81.78065,11.77716 87.80977,18.22278 4.7637,5.09277 6.20113,8.77075 6.21748,15.90871 0.0253,11.03051 3.75266,6.69195 -60.80177,70.77119 l -56.90983,56.49093 3.29971,19.78663 c 1.81485,10.88264 7.8454,46.78593 13.40125,79.78508 9.47248,56.26219 10.05472,60.2517 9.3498,64.06498 -1.43695,7.77315 -6.05154,13.94259 -12.9583,17.3245 -4.90664,2.40255 -11.54125,3.04507 -16.26544,1.57523 -1.74514,-0.54297 -33.71901,-17.30864 -71.05306,-37.25706 -37.33405,-19.94841 -68.66376,-36.62468 -69.62158,-37.05837 -1.59356,-0.72154 -7.61894,2.3493 -70.92726,36.14815 -38.05217,20.31517 -70.78824,37.41256 -72.74684,37.9942 -4.27662,1.27002 -8.20269,1.28517 -12.16474,0.0469 z m 88.42152,-93.47971 c 27.69286,-14.80612 52.49695,-27.95307 55.12019,-29.21545 5.92494,-2.85122 10.78776,-3.53619 15.88612,-2.23768 2.38474,0.60737 23.94701,11.73036 57.63611,29.73185 29.60428,15.81879 53.91083,28.65609 54.01458,28.52733 0.10375,-0.12876 -4.4787,-27.66269 -10.18322,-61.1865 -7.79145,-45.78807 -10.28816,-61.8912 -10.03547,-64.72594 0.19845,-2.22614 1.21622,-5.56074 2.48195,-8.13182 1.91004,-3.87984 6.99991,-9.15553 46.36719,-48.05993 24.32189,-24.03592 44.10535,-43.81793 43.96326,-43.96003 -0.1421,-0.14209 -27.61815,-4.30946 -61.05789,-9.26081 -67.82808,-10.04315 -65.39185,-9.49395 -71.29121,-16.0714 -2.23753,-2.49471 -8.94684,-15.69117 -29.67914,-58.37557 -14.73343,-30.33369 -27.05153,-55.064345 -27.37356,-54.956999 -0.32203,0.107338 -10.78075,21.192809 -23.2416,46.856589 -12.46086,25.66378 -24.48447,50.42306 -26.71914,55.02061 -4.82908,9.93521 -7.5261,13.26064 -13.21312,16.29179 -4.1485,2.21113 -5.57342,2.45689 -63.26928,10.912 -32.46385,4.75746 -59.91304,8.88978 -60.99818,9.18293 -1.908943,0.5157 -0.535863,1.9534 42.29464,44.28503 40.06793,39.60125 44.47882,44.18102 46.49379,48.274 1.88789,3.83486 2.22363,5.28416 2.20944,9.53778 -0.0106,3.19446 -3.59663,26.01045 -9.87551,62.83347 -5.42234,31.79973 -10.03572,58.67973 -10.25195,59.73334 -0.21623,1.0536 -0.22114,1.91564 -0.0109,1.91564 0.21024,0 23.04004,-12.1141 50.7329,-26.92023 z"
     id="path12" />
</svg>
